<?xml version="1.0" encoding="utf-8"?>
<!-- Svg Vector Icons : http://www.onlinewebfonts.com/icon -->
<!DOCTYPE svg PUBLIC "-//W3C//DTD SVG 1.1//EN" "http://www.w3.org/Graphics/SVG/1.1/DTD/svg11.dtd">
<svg version="1.1" xmlns="http://www.w3.org/2000/svg" xmlns:xlink="http://www.w3.org/1999/xlink" x="0px" y="0px" viewBox="0 0 256 256" enable-background="new 0 0 256 256" xml:space="preserve">
<metadata> Svg Vector Icons : http://www.onlinewebfonts.com/icon </metadata>
<g><g><path fill="#000000" d="M232.2,237.3c-5.6-40.5-34.3-73.6-72.4-85.6c25.2-11.9,42.6-37.6,42.6-67.3c0-41.1-33.3-74.4-74.4-74.4c-41.1,0-74.4,33.3-74.4,74.4c0,29.7,17.4,55.4,42.6,67.3c-37.9,12-66.4,45-72.2,85.2c-0.3,0.8-0.5,1.6-0.5,2.5c0,3.7,3,6.6,6.6,6.6c3.7,0,6.6-3,6.6-6.6c0-0.1,0-0.2,0-0.3c6.2-44.9,44.7-79.4,91.3-79.4c46.4,0,84.8,34.3,91.2,78.9c0,0.2,0,0.5,0,0.8c0,3.7,3,6.6,6.6,6.6c3.7,0,6.6-3,6.6-6.6C232.5,238.6,232.4,238,232.2,237.3L232.2,237.3z M128,145.9c-34,0-61.4-27.5-61.4-61.5c0-34,27.5-61.5,61.4-61.5c34,0,61.5,27.5,61.5,61.5C189.5,118.3,162,145.9,128,145.9L128,145.9z"/></g></g>
</svg>